<svg width="16" height="16" viewBox="0 0 16 16" fill="none" xmlns="http://www.w3.org/2000/svg">
<g clip-path="url(#clip0_212_87)">
<path d="M4.575 6.69998C4.575 6.69998 5 6.14998 5.975 5.89998C6.75 5.67498 6.55 4.97498 6.925 4.59998L7.25 5.64998L7 6.69998L7.15 7.07498C7.15 7.07498 6.725 6.77498 6.55 6.74998C5.9 6.67498 4.675 6.79998 4.575 6.69998Z" fill="#B2C1C0"/>
<path d="M4.575 6.69998C4.575 6.69998 5 6.14998 5.975 5.89998C6.75 5.67498 6.55 4.97498 6.925 4.59998L7.25 5.64998L7 6.69998L7.15 7.07498C7.15 7.07498 6.725 6.77498 6.55 6.74998C5.9 6.67498 4.675 6.79998 4.575 6.69998Z" fill="#3E4347"/>
<path d="M9.575 7.67501C8.025 7.02501 7.9 6.95001 7.425 6.47501L7.125 5.82501C7.05 5.75001 7.05 5.55001 6.9 5.40001C6.75 5.25001 6.2 5.07501 6.05 4.90001C6.05 4.90001 6.1 4.80001 6.025 4.72501C5.95 4.65001 5.7 4.80001 5.3 5.22501C4.9 5.62501 4.725 5.87501 4.8 5.95001C4.875 6.02501 4.975 5.97501 4.975 5.97501C5.125 6.12501 5.325 6.67501 5.475 6.82501C5.625 6.97501 5.825 6.97501 5.9 7.05001L6.55 7.35001C7.025 7.82501 7.075 7.95001 7.725 9.52501C8.275 10.85 8.625 12.3 9.45 13.525C9.925 14.25 10.775 15.15 11.75 15.45C11.9 15.5 12.2 15.575 12.4 15.375L15.35 12.4C15.55 12.2 15.475 11.875 15.425 11.725C15.15 10.775 14.225 9.90001 13.525 9.40001C12.35 8.57501 10.875 8.22501 9.575 7.67501Z" fill="#46732F"/>
<path d="M9.975 7.82501C9.85 7.77501 9.7 7.72501 9.55 7.65001C8.025 7.00001 7.25 5.95001 7.25 5.95001L7 6.62501L7.175 7.10001L6.825 6.85001L5.925 7.05001C5.925 7.05001 7.05 7.90001 7.75 9.52501C7.8 9.67501 7.85 9.80001 7.925 9.92501L8.35 9.50001L8.525 9.92501L9.2 9.47501L9.475 9.40001L9.55 9.12501L10 8.45001L9.575 8.27501L9.975 7.82501Z" fill="#FFE791"/>
<path opacity="0.5" d="M7.17499 7.10002C7.17499 7.10002 6.57499 6.57502 5.89999 7.05002L6.32499 7.42502C6.54999 7.27502 6.89999 7.17502 7.29999 7.25002C7.29999 7.25002 7.14999 6.72502 7.52499 6.27502L7.29999 6.02502C7.14999 6.20002 6.84999 6.75002 7.17499 7.10002Z" fill="#3E4347"/>
<path d="M6.475 6.57501C6.275 6.47501 5.875 6.50001 5.5 6.67501C5.5 6.67501 5.5 6.47501 5.35 6.47501C5.225 6.45001 4.825 6.67501 4.55 6.70001C4.55 6.70001 4.725 6.92501 4.7 7.12501C4.675 7.32501 5.1 6.90001 5.3 6.85001C5.3 6.85001 5.225 7.12501 5.2 7.40001C5.175 7.65001 6.7 6.65001 7.15 7.10001C7.175 7.10001 6.775 6.70001 6.475 6.57501ZM7.175 7.10001C7.175 7.10001 6.825 6.75001 6.9 6.12501C6.9 6.12501 7.2 6.02501 7.1 5.92501C7 5.82501 6.7 6.02501 6.75 5.57501C6.8 5.12501 7 4.92501 6.925 4.60001C6.925 4.60001 7.35 4.52501 7.4 4.85001C7.425 5.17501 7.275 5.47501 7.45 5.45001C7.7 5.42501 7.975 5.57501 7.575 5.97501C7.15 6.37501 7.025 6.77501 7.175 7.10001ZM14.925 11.375L11.425 14.875C10.8 14.475 10.275 13.95 9.875 13.325L13.375 9.82501C14 10.25 14.5 10.75 14.925 11.375Z" fill="#FFE791"/>
<path d="M4.625 5.675C4.675 5.375 2.65 5.5 2.025 5.6C0.750003 5.775 0.900003 7.275 2.075 6.475C3.15 5.75 4.625 5.75 4.625 5.675ZM6.05 3.125C6.1 3.2 7.125 1.125 6.775 1.25C6.5 1.4 6.025 3.05 6.05 3.125ZM5.3 5.1C5.375 4.825 3.925 0.750005 3.525 0.550005C3.125 0.350005 2.55 0.725005 4.175 3.275C4.875 4.375 5.15 5.6 5.3 5.1ZM4.225 6.075C3.75 6.175 2.95 7 3.375 6.825C3.8 6.675 4.525 6 4.225 6.075ZM5.775 4.575C6.1 4.275 6.875 3.425 6.475 3.55C6.125 3.625 5.45 4.875 5.775 4.575ZM5.45 2.075C5.2 2.375 5.275 4 5.475 4.525C5.675 5.075 5.675 1.75 5.45 2.075ZM2.9 5.075C3.875 4.6 0.0250025 4.525 0.550002 4.975C1.075 5.425 2.45 5.275 2.9 5.075Z" fill="#EDE2D1"/>
<path d="M2.38759 7.136C2.55406 7.06888 2.65135 6.92105 2.60489 6.8058C2.55843 6.69055 2.38581 6.65152 2.21934 6.71863C2.05286 6.78574 1.95557 6.93358 2.00203 7.04883C2.0485 7.16408 2.22111 7.20311 2.38759 7.136Z" fill="#EDE2D1"/>
<path d="M6.64133 2.97863C6.71449 2.89587 6.73187 2.79172 6.68014 2.74599C6.62842 2.70027 6.52719 2.73029 6.45403 2.81305C6.38087 2.8958 6.36349 2.99996 6.41522 3.04568C6.46694 3.0914 6.56818 3.06138 6.64133 2.97863Z" fill="#EDE2D1"/>
<path d="M3.18315 7.32079C3.29595 7.24117 3.34221 7.11261 3.28647 7.03365C3.23074 6.95469 3.09411 6.95523 2.98131 7.03485C2.86851 7.11447 2.82225 7.24303 2.87799 7.32199C2.93372 7.40095 3.07035 7.40041 3.18315 7.32079Z" fill="#EDE2D1"/>
<path d="M4.91314 1.57253C5.05584 1.52053 5.11021 1.31012 5.03457 1.10255C4.95893 0.894992 4.78194 0.768884 4.63924 0.820884C4.49654 0.872885 4.44218 1.0833 4.51781 1.29086C4.59345 1.49843 4.77044 1.62453 4.91314 1.57253Z" fill="#EDE2D1"/>
<path d="M6.03557 1.76926C6.10337 1.75626 6.14147 1.65777 6.12066 1.54929C6.09985 1.44081 6.02803 1.36342 5.96023 1.37642C5.89243 1.38942 5.85433 1.4879 5.87514 1.59638C5.89594 1.70486 5.96777 1.78226 6.03557 1.76926Z" fill="#EDE2D1"/>
<path d="M2.225 2.525L1.65 3.4C1.475 3.675 1.55 4.05 1.825 4.25L2.075 4.425C2.275 4.575 2.55 4.55 2.75 4.425L3.3 4.8C3.575 4.975 3.95 4.9 4.15 4.625L4.325 4.375C4.5 4.1 4.425 3.725 4.15 3.525L3.6 3.15C3.65 2.925 3.55 2.65 3.35 2.525L3.1 2.35C2.775 2.175 2.4 2.25 2.225 2.525Z" fill="#D3976E"/>
<path d="M2.22501 2.52498C2.22501 2.52498 2.55001 2.32498 2.87501 2.54998C2.97501 2.59998 3.05001 2.67498 3.12501 2.72498C3.17501 2.77498 3.32501 2.97498 3.05001 3.39998C2.72501 3.89998 2.67501 4.22498 2.67501 4.22498C2.67501 4.22498 3.15001 3.27498 3.67501 3.54998C4.05001 3.74998 4.52501 4.02498 4.15001 4.59998L4.32501 4.34998C4.50001 4.07498 4.42501 3.69998 4.15001 3.49998L3.60001 3.12498C3.65001 2.89998 3.55001 2.62498 3.35001 2.49998L3.10001 2.32498C2.77501 2.17498 2.40001 2.24998 2.22501 2.52498Z" fill="#89664C"/>
</g>
<defs>
<clipPath id="clip0_212_87">
<rect width="16" height="16" fill="white"/>
</clipPath>
</defs>
</svg>
