<svg width="16" height="16" viewBox="0 0 16 16" fill="none" xmlns="http://www.w3.org/2000/svg">
<path d="M14.7647 12.1611L8.53866 15.6167C8.23997 15.7825 7.75122 15.7825 7.45257 15.6167L1.22653 12.1611C1.07719 12.0782 1.00253 11.9689 1.00253 11.8597H0.936409V4.14026H14.9887V11.8597C14.9887 11.9689 14.914 12.0782 14.7647 12.1611Z" fill="#FF473E"/>
<path d="M14.9887 4.14029V11.8597C14.9887 11.969 14.914 12.0783 14.7647 12.1612L8.53866 15.6167C8.38335 15.7029 8.17669 15.744 7.97203 15.7404C7.97688 11.875 8.08675 8.00463 7.96663 4.14026L14.9887 4.14029Z" fill="#FF6E83"/>
<path d="M7.45253 7.89728L1.22653 4.44168C0.927846 4.2759 0.927846 4.00465 1.22653 3.83887L7.45253 0.383308C7.75122 0.217527 8.23997 0.217527 8.53863 0.383308L14.7647 3.8389C15.0633 4.00468 15.0633 4.27593 14.7647 4.44171L8.53866 7.89728C8.23997 8.06306 7.75122 8.06306 7.45253 7.89728Z" fill="#FFA9BA"/>
<path d="M12.2216 2.31638C12.2213 2.35291 12.2111 2.38868 12.1922 2.41992C12.1732 2.45117 12.1462 2.47673 12.114 2.49391L4.65419 6.47032C4.64391 6.47579 4.63319 6.48037 4.62213 6.484L4.59691 6.4981V13.919C4.59691 13.9544 4.58768 13.9892 4.57013 14.0199C4.55258 14.0506 4.52732 14.0761 4.49684 14.0941C4.46637 14.112 4.43173 14.1217 4.39637 14.1222C4.36101 14.1226 4.32614 14.1138 4.29522 14.0967L3.04522 13.4029C3.01353 13.3853 2.98712 13.3595 2.96874 13.3283C2.95035 13.2971 2.94066 13.2615 2.94066 13.2253V6.00385C2.94069 5.87993 2.96854 5.75761 3.02216 5.64589C3.07578 5.53418 3.15379 5.43592 3.25044 5.35838L3.25781 5.35263C3.27419 5.33982 3.28972 5.32854 3.30569 5.31775C3.32942 5.30164 3.35395 5.28675 3.37919 5.27313L10.6211 1.41288C10.651 1.39693 10.6844 1.38873 10.7183 1.38902C10.7522 1.3893 10.7855 1.39808 10.8152 1.41454L12.117 2.13707C12.149 2.1548 12.1755 2.18081 12.1939 2.21236C12.2123 2.24392 12.2219 2.27985 12.2216 2.31638ZM12.9095 5.45797C12.8622 5.40407 12.8081 5.35656 12.7486 5.31663C12.7447 5.31397 12.7408 5.31132 12.7362 5.30832C12.7169 5.29572 12.697 5.28395 12.6767 5.27304L5.43481 1.41285C5.40489 1.3969 5.37145 1.3887 5.33754 1.38898C5.30363 1.38927 5.27034 1.39805 5.24069 1.4145L3.93885 2.13704C3.90689 2.15476 3.88031 2.18077 3.8619 2.21233C3.84349 2.24389 3.83394 2.27984 3.83425 2.31637C3.83456 2.35291 3.84472 2.38869 3.86366 2.41993C3.88261 2.45118 3.90963 2.47674 3.94188 2.49391L11.4017 6.47032C11.4121 6.47584 11.4228 6.48041 11.4338 6.48404L11.459 6.49813V13.9191C11.459 13.9544 11.4682 13.9892 11.4858 14.0199C11.5033 14.0506 11.5286 14.0762 11.559 14.0941C11.5895 14.1121 11.6241 14.1217 11.6595 14.1222C11.6949 14.1226 11.7297 14.1139 11.7607 14.0967L13.0107 13.4029C13.0423 13.3853 13.0688 13.3596 13.0871 13.3283C13.1055 13.2971 13.1152 13.2615 13.1152 13.2253V6.00385C13.1151 5.80296 13.042 5.60895 12.9095 5.45797Z" fill="#FFD4DE"/>
<path d="M10.4876 4.28386C10.4876 4.79358 9.86238 5.16352 9.00103 5.16352C8.64975 5.16352 8.33784 5.10192 8.09153 4.99448C8.06008 4.98083 8.02601 4.97427 7.99173 4.9753C7.95746 4.97632 7.92383 4.98488 7.89325 5.00039C7.63653 5.12995 7.29613 5.20545 6.90738 5.20545C6.04603 5.20545 5.42085 4.83552 5.42085 4.3258C5.42085 4.06917 5.57935 3.84802 5.84666 3.69161C5.95197 3.63002 5.99619 3.49855 5.94403 3.38827C5.7535 2.98533 5.75963 2.6073 5.99331 2.37361C6.11435 2.25258 6.2801 2.18861 6.47269 2.18861C6.608 2.18861 6.75494 2.22058 6.90591 2.28061C6.96391 2.30374 7.02868 2.30313 7.08624 2.27892C7.1438 2.2547 7.18952 2.20881 7.21353 2.15117C7.36869 1.78083 7.62541 1.55273 7.93322 1.55273C8.23578 1.55273 8.48906 1.77308 8.64497 2.13233C8.69672 2.25158 8.83331 2.30848 8.95347 2.25889C9.11122 2.1938 9.26491 2.15898 9.40603 2.15898C9.64931 2.15898 9.801 2.25958 9.88541 2.34398C10.1151 2.5737 10.125 2.94286 9.94431 3.33808C9.89363 3.44895 9.93856 3.58014 10.0447 3.64011C10.3223 3.79692 10.4876 4.02189 10.4876 4.28386Z" fill="#FF6E83"/>
</svg>
