<svg width="16" height="16" viewBox="0 0 16 16" fill="none" xmlns="http://www.w3.org/2000/svg">
<path d="M5.0375 13.85C4.775 13.7 4.46251 13.55 4.31251 13.35C4.26251 13.275 4.2 13.0625 4.225 12.7625C4.25 12.4375 4.48751 11.4 4.93751 10.325C4.97501 10.25 5.05 10.1625 5.1375 10.0875C5.1625 10.0625 5.20001 10 5.15001 9.9625L4.725 9.85L4.2875 9.75C4.225 9.7625 4.22501 9.825 4.23751 9.8625C4.27501 9.9625 4.3 10.075 4.2875 10.1625C4.1375 11.325 3.825 12.325 3.6875 12.625C3.55 12.9 3.4 13.05 3.3125 13.0875C3.0875 13.1875 2.7375 13.1625 2.4375 13.15C2.2375 13.15 1.7625 13.125 1.7 13.3875C1.6125 13.7125 2.6375 14.175 3.5 14.4C4.3625 14.625 5.47501 14.75 5.56251 14.425C5.63751 14.1625 5.2125 13.95 5.0375 13.85Z" fill="#D1EBED"/>
<path d="M8.31249 2.92499L5.06249 2.04999C5.06249 2.04999 3.99999 4.49999 3.72499 7.01249C3.47499 9.33749 4.29999 10.075 4.62499 10.1625C4.94999 10.25 6.03749 10.025 6.98749 7.88749C8.02499 5.57499 8.31249 2.92499 8.31249 2.92499Z" fill="#D1EBED"/>
<path d="M2.5375 13.4625C2.475 13.4375 2.4 13.4375 2.3875 13.5C2.375 13.5375 2.425 13.575 2.4625 13.6C2.625 13.7 2.9125 13.8125 3.2125 13.9125C3.25 13.925 3.3375 13.9375 3.3625 13.9125C3.4 13.8875 3.3875 13.85 3.3625 13.8125C3.3375 13.775 3.2875 13.7625 3.25 13.7375C2.875 13.6125 2.8125 13.5875 2.5375 13.4625Z" fill="white"/>
<path d="M7.63751 4.7125L4.75001 3.9375C4.00001 6.7625 3.97501 9.125 4.85001 9.35C5.72501 9.5875 6.88751 7.5375 7.63751 4.7125Z" fill="#FBCC2F"/>
<path d="M7.63749 4.41252C7.58749 4.35002 7.52499 4.38752 7.44999 4.38752C7.13749 4.41252 6.84999 4.32502 6.58749 4.15002C6.33749 3.98752 6.09999 3.80002 5.81249 3.68752C5.62499 3.61252 5.42499 3.58752 5.23749 3.61252C5.09999 3.62502 4.94999 3.66252 4.83749 3.76252C4.74999 3.85002 4.73749 4.01252 4.72499 4.12502C4.69999 4.35002 4.72499 4.58752 4.81249 4.78752C4.96249 5.11252 5.24999 5.33752 5.56249 5.48752C5.66249 5.53752 5.74999 5.57502 5.86249 5.60002C5.94999 5.62502 6.03749 5.63752 6.12499 5.65002C6.46249 5.68752 6.81249 5.65002 7.09999 5.47502C7.28749 5.36252 7.43749 5.20002 7.53749 5.00002C7.59999 4.87502 7.64999 4.73752 7.67499 4.60002C7.68749 4.53752 7.68749 4.48752 7.66249 4.42502C7.64999 4.42502 7.64999 4.42502 7.63749 4.41252" fill="#FBCC2F"/>
<mask id="mask0_212_38" style="mask-type:luminance" maskUnits="userSpaceOnUse" x="4" y="3" width="4" height="3">
<path d="M7.63749 4.41252C7.58749 4.35002 7.52499 4.38752 7.44999 4.38752C7.13749 4.41252 6.84999 4.32502 6.58749 4.15002C6.33749 3.98752 6.09999 3.80002 5.81249 3.68752C5.62499 3.61252 5.42499 3.58752 5.23749 3.61252C5.09999 3.62502 4.94999 3.66252 4.83749 3.76252C4.74999 3.85002 4.73749 4.01252 4.72499 4.12502C4.69999 4.35002 4.72499 4.58752 4.81249 4.78752C4.96249 5.11252 5.24999 5.33752 5.56249 5.48752C5.66249 5.53752 5.74999 5.57502 5.86249 5.60002C5.94999 5.62502 6.03749 5.63752 6.12499 5.65002C6.46249 5.68752 6.81249 5.65002 7.09999 5.47502C7.28749 5.36252 7.43749 5.20002 7.53749 5.00002C7.59999 4.87502 7.64999 4.73752 7.67499 4.60002C7.68749 4.53752 7.68749 4.48752 7.66249 4.42502C7.64999 4.42502 7.64999 4.42502 7.63749 4.41252" fill="white"/>
</mask>
<g mask="url(#mask0_212_38)">
<path d="M7.3375 4.40001C6.275 4.30001 5.3375 4.37501 4.925 4.01251C4.625 3.76251 5 3.58751 5.325 3.57501C6.125 3.57501 6.3125 3.98751 6.725 4.15001C6.975 4.26251 7.075 4.35001 7.3375 4.40001Z" fill="#E5A315"/>
</g>
<path d="M5.21995 8.78009C5.2396 8.70674 5.19607 8.63134 5.12272 8.61169C5.04937 8.59204 4.97397 8.63557 4.95432 8.70892C4.93466 8.78227 4.97819 8.85767 5.05155 8.87732C5.1249 8.89697 5.20029 8.85344 5.21995 8.78009Z" fill="#E5A315"/>
<path d="M5.56734 8.48677C5.57985 8.44009 5.55214 8.39211 5.50547 8.37961C5.45879 8.3671 5.41081 8.3948 5.3983 8.44148C5.38579 8.48816 5.4135 8.53614 5.46017 8.54865C5.50685 8.56115 5.55483 8.53345 5.56734 8.48677Z" fill="#E5A315"/>
<path d="M5.10281 8.18215C5.12604 8.09546 5.07459 8.00636 4.9879 7.98313C4.90121 7.95991 4.81211 8.01135 4.78888 8.09804C4.76565 8.18473 4.8171 8.27383 4.90379 8.29706C4.99048 8.32029 5.07958 8.26884 5.10281 8.18215Z" fill="#E5A315"/>
<path d="M5.70385 8.16422C5.72886 8.07086 5.67346 7.9749 5.5801 7.94989C5.48674 7.92488 5.39078 7.98028 5.36577 8.07364C5.34076 8.167 5.39616 8.26295 5.48952 8.28797C5.58288 8.31298 5.67883 8.25758 5.70385 8.16422Z" fill="#E5A315"/>
<path d="M5.33393 7.31452C5.35358 7.24116 5.31005 7.16577 5.2367 7.14611C5.16335 7.12646 5.08795 7.16999 5.0683 7.24334C5.04865 7.3167 5.09218 7.39209 5.16553 7.41175C5.23888 7.4314 5.31428 7.38787 5.33393 7.31452Z" fill="#E5A315"/>
<path d="M5.65993 7.46123C5.67779 7.39455 5.63822 7.32601 5.57153 7.30814C5.50485 7.29027 5.43631 7.32985 5.41844 7.39653C5.40058 7.46322 5.44015 7.53176 5.50683 7.54962C5.57352 7.56749 5.64206 7.52792 5.65993 7.46123Z" fill="#E5A315"/>
<path d="M6.35 6.85039C6.36787 6.78371 6.3283 6.71517 6.26161 6.6973C6.19493 6.67943 6.12639 6.71901 6.10852 6.78569C6.09066 6.85238 6.13023 6.92092 6.19691 6.93878C6.2636 6.95665 6.33214 6.91708 6.35 6.85039Z" fill="#E5A315"/>
<path d="M5.43781 5.84907C5.45925 5.76905 5.41176 5.6868 5.33174 5.66536C5.25172 5.64392 5.16947 5.69141 5.14803 5.77143C5.12659 5.85145 5.17408 5.9337 5.2541 5.95514C5.33412 5.97658 5.41637 5.92909 5.43781 5.84907Z" fill="#E5A315"/>
<path d="M5.93049 7.1367C5.95729 7.03668 5.89793 6.93387 5.79791 6.90707C5.69788 6.88027 5.59507 6.93963 5.56827 7.03965C5.54147 7.13968 5.60083 7.24249 5.70086 7.26929C5.80088 7.29609 5.90369 7.23673 5.93049 7.1367Z" fill="#E5A315"/>
<path d="M5.60092 6.45421C5.62772 6.35418 5.56836 6.25137 5.46833 6.22457C5.36831 6.19777 5.2655 6.25713 5.2387 6.35716C5.2119 6.45718 5.27126 6.55999 5.37128 6.58679C5.47131 6.61359 5.57412 6.55423 5.60092 6.45421Z" fill="#E5A315"/>
<path d="M6.21873 6.38776C6.23838 6.3144 6.19485 6.23901 6.1215 6.21936C6.04814 6.1997 5.97275 6.24323 5.9531 6.31659C5.93344 6.38994 5.97697 6.46533 6.05033 6.48499C6.12368 6.50464 6.19907 6.46111 6.21873 6.38776Z" fill="#E5A315"/>
<path d="M4.525 6.5C4.5875 6.5375 4.7625 6.6125 4.9 6.675C4.9875 6.7125 5.0375 6.625 5.05 6.5625C5.1875 5.6625 5.7375 3.65 6.025 2.95C5.85 2.8625 5.6625 2.775 5.4875 2.6875C5.1375 3.3875 4.5375 5.7625 4.4875 6.3125C4.475 6.3 4.45 6.4375 4.525 6.5Z" fill="white"/>
<path d="M8.3125 2.97498C8.2 3.37498 7.4125 3.41248 6.5125 3.16248C5.6125 2.92498 4.9375 2.49998 5.05 2.09998C5.1625 1.69998 5.95 1.66248 6.85 1.91248C7.75 2.14998 8.4125 2.57498 8.3125 2.97498Z" fill="#AECECE"/>
<path d="M8.125 2.92498C8.0375 3.23748 7.35 3.23748 6.55 3.02498C5.75 2.81248 5.15 2.46248 5.2375 2.14998C5.325 1.83748 6.0125 1.83748 6.8125 2.04998C7.6 2.26248 8.2 2.61248 8.125 2.92498ZM13.5625 14.2375C13.2625 14.2375 12.9125 14.275 12.6875 14.175C12.6 14.1375 12.45 13.9875 12.3125 13.7125C12.175 13.4125 11.8625 12.4 11.7125 11.25C11.7 11.1625 11.725 11.05 11.7625 10.95C11.775 10.9125 11.775 10.85 11.7125 10.8375L11.2875 10.95L10.8625 11.0625C10.8125 11.1 10.85 11.1625 10.875 11.1875C10.9625 11.25 11.0375 11.3375 11.075 11.425C11.525 12.5 11.7625 13.525 11.7875 13.8625C11.8125 14.1625 11.75 14.375 11.7 14.45C11.55 14.65 11.2375 14.8 10.975 14.95C10.8 15.05 10.375 15.2625 10.45 15.525C10.5375 15.85 11.65 15.7375 12.5125 15.5C13.375 15.275 14.4 14.8125 14.3125 14.4875C14.225 14.2125 13.7625 14.2375 13.5625 14.2375Z" fill="#D1EBED"/>
<path d="M10.9375 3.13751L7.6875 4.01251C7.6875 4.01251 7.9875 6.66251 9.0125 8.97501C9.9625 11.1125 11.0375 11.3375 11.375 11.25C11.7 11.1625 12.525 10.425 12.275 8.10001C12 5.58751 10.9375 3.13751 10.9375 3.13751Z" fill="#D1EBED"/>
<path d="M11.1875 15.15C11.125 15.1625 11.0625 15.2 11.075 15.25C11.0875 15.2875 11.15 15.3 11.2 15.3C11.4 15.3125 11.6875 15.2625 12 15.2C12.0375 15.1875 12.125 15.1625 12.1375 15.125C12.1625 15.0875 12.125 15.0625 12.0875 15.05C12.05 15.0375 12 15.0375 11.95 15.05C11.575 15.1125 11.5 15.125 11.1875 15.15Z" fill="white"/>
<path d="M11.25 5.02502L8.3625 5.80002C9.125 8.62502 10.275 10.675 11.15 10.4375C12.025 10.2 12 7.85002 11.25 5.02502Z" fill="#FBCC2F"/>
<path d="M11.1 4.77503C11.025 4.75003 10.9875 4.81253 10.925 4.85003C10.6625 5.02503 10.375 5.08753 10.0625 5.07503C9.7625 5.06253 9.4625 5.02503 9.1625 5.06253C8.975 5.08753 8.775 5.16253 8.625 5.28753C8.5125 5.37503 8.4 5.47503 8.3625 5.61253C8.325 5.73753 8.4 5.87503 8.4375 5.98753C8.525 6.20003 8.6625 6.38753 8.85 6.52503C9.1375 6.72503 9.5 6.78753 9.85 6.75003C9.95 6.73753 10.0625 6.72503 10.1625 6.70003C10.25 6.67503 10.3375 6.65003 10.4125 6.61253C10.7125 6.47503 11 6.26253 11.1625 5.97503C11.2625 5.78753 11.3125 5.56253 11.3 5.35003C11.2875 5.21253 11.2625 5.06253 11.225 4.92503C11.2 4.86253 11.1875 4.81253 11.125 4.78753C11.1125 4.77503 11.1 4.77503 11.1 4.77503" fill="#FBCC2F"/>
<mask id="mask1_212_38" style="mask-type:luminance" maskUnits="userSpaceOnUse" x="8" y="4" width="4" height="3">
<path d="M11.1 4.77503C11.025 4.75003 10.9875 4.81253 10.925 4.85003C10.6625 5.02503 10.375 5.08753 10.0625 5.07503C9.7625 5.06253 9.4625 5.02503 9.1625 5.06253C8.975 5.08753 8.775 5.16253 8.625 5.28753C8.5125 5.37503 8.4 5.47503 8.3625 5.61253C8.325 5.73753 8.4 5.87503 8.4375 5.98753C8.525 6.20003 8.6625 6.38753 8.85 6.52503C9.1375 6.72503 9.5 6.78753 9.85 6.75003C9.95 6.73753 10.0625 6.72503 10.1625 6.70003C10.25 6.67503 10.3375 6.65003 10.4125 6.61253C10.7125 6.47503 11 6.26253 11.1625 5.97503C11.2625 5.78753 11.3125 5.56253 11.3 5.35003C11.2875 5.21253 11.2625 5.06253 11.225 4.92503C11.2 4.86253 11.1875 4.81253 11.125 4.78753C11.1125 4.77503 11.1 4.77503 11.1 4.77503" fill="white"/>
</mask>
<g mask="url(#mask1_212_38)">
<path d="M10.825 4.91254C9.8625 5.36254 9.075 5.88754 8.55 5.78754C8.1625 5.71254 8.4 5.37504 8.6875 5.21254C9.375 4.81254 9.75 5.07504 10.1875 5.01254C10.4375 4.96254 10.575 5.00004 10.825 4.91254Z" fill="#E5A315"/>
</g>
<path d="M11.0855 9.92041C11.1589 9.90076 11.2024 9.82537 11.1828 9.75201C11.1631 9.67866 11.0877 9.63513 11.0144 9.65478C10.941 9.67444 10.8975 9.74983 10.9171 9.82318C10.9368 9.89654 11.0122 9.94007 11.0855 9.92041Z" fill="#E5A315"/>
<path d="M11.2728 9.4332C11.3195 9.42069 11.3472 9.37271 11.3347 9.32603C11.3222 9.27935 11.2742 9.25165 11.2275 9.26416C11.1809 9.27667 11.1532 9.32465 11.1657 9.37132C11.1782 9.418 11.2262 9.4457 11.2728 9.4332Z" fill="#E5A315"/>
<path d="M10.6552 9.49575C10.7419 9.47252 10.7934 9.38342 10.7701 9.29673C10.7469 9.21004 10.6578 9.15859 10.5711 9.18182C10.4844 9.20505 10.433 9.29415 10.4562 9.38084C10.4794 9.46753 10.5685 9.51898 10.6552 9.49575Z" fill="#E5A315"/>
<path d="M11.1708 9.19446C11.2641 9.16944 11.3195 9.07349 11.2945 8.98013C11.2695 8.88677 11.1736 8.83137 11.0802 8.85638C10.9868 8.8814 10.9314 8.97735 10.9565 9.07071C10.9815 9.16407 11.0774 9.21947 11.1708 9.19446Z" fill="#E5A315"/>
<path d="M10.4479 8.59571C10.5213 8.57605 10.5648 8.50066 10.5451 8.42731C10.5255 8.35395 10.4501 8.31042 10.3767 8.33008C10.3034 8.34973 10.2599 8.42512 10.2795 8.49848C10.2992 8.57183 10.3746 8.61536 10.4479 8.59571Z" fill="#E5A315"/>
<path d="M10.8084 8.55874C10.8751 8.54088 10.9147 8.47233 10.8968 8.40565C10.879 8.33897 10.8104 8.29939 10.7437 8.31726C10.6771 8.33513 10.6375 8.40367 10.6554 8.47035C10.6732 8.53703 10.7418 8.57661 10.8084 8.55874Z" fill="#E5A315"/>
<path d="M11.1078 7.66995C11.1745 7.65208 11.2141 7.58354 11.1962 7.51686C11.1783 7.45017 11.1098 7.4106 11.0431 7.42847C10.9764 7.44633 10.9368 7.51487 10.9547 7.58156C10.9726 7.64824 11.0411 7.68781 11.1078 7.66995Z" fill="#E5A315"/>
<path d="M9.80061 7.29521C9.88063 7.27377 9.92812 7.19152 9.90668 7.1115C9.88524 7.03148 9.80299 6.98399 9.72297 7.00543C9.64295 7.02687 9.59546 7.10912 9.6169 7.18914C9.63834 7.26916 9.72059 7.31665 9.80061 7.29521Z" fill="#E5A315"/>
<path d="M10.8357 8.2078C10.9357 8.181 10.9951 8.07819 10.9683 7.97816C10.9415 7.87814 10.8387 7.81878 10.7387 7.84558C10.6386 7.87238 10.5793 7.97519 10.6061 8.07522C10.6329 8.17524 10.7357 8.2346 10.8357 8.2078Z" fill="#E5A315"/>
<path d="M10.2238 7.78031C10.3238 7.75351 10.3832 7.6507 10.3564 7.55067C10.3296 7.45065 10.2268 7.39129 10.1268 7.41809C10.0267 7.44489 9.96737 7.5477 9.99417 7.64773C10.021 7.74775 10.1238 7.80711 10.2238 7.78031Z" fill="#E5A315"/>
<path d="M10.7495 7.3592C10.8228 7.33954 10.8663 7.26415 10.8467 7.19079C10.827 7.11744 10.7516 7.07391 10.6783 7.09357C10.6049 7.11322 10.5614 7.18861 10.5811 7.26197C10.6007 7.33532 10.6761 7.37885 10.7495 7.3592Z" fill="#E5A315"/>
<path d="M9.43751 8.12499C9.51251 8.13749 9.70001 8.09999 9.85001 8.08749C9.95001 8.07499 9.93751 7.97499 9.91251 7.91249C9.57501 7.06249 9.05001 5.04999 8.95001 4.29999C8.75001 4.31249 8.55001 4.32499 8.35001 4.34999C8.40001 5.13749 9.06251 7.47499 9.28751 7.98749C9.28751 7.97499 9.33751 8.11249 9.43751 8.12499Z" fill="white"/>
<path d="M10.95 3.1875C11.0625 3.5875 10.3875 4.0125 9.4875 4.25C8.5875 4.4875 7.8 4.4625 7.6875 4.0625C7.575 3.6625 8.25 3.2375 9.15 3C10.05 2.75 10.85 2.7875 10.95 3.1875Z" fill="#AECECE"/>
<path d="M10.7625 3.2375C10.85 3.55 10.25 3.9 9.45 4.1125C8.65 4.325 7.9625 4.325 7.875 4.0125C7.7875 3.7 8.3875 3.35 9.1875 3.1375C9.9875 2.925 10.675 2.925 10.7625 3.2375Z" fill="#D1EBED"/>
<path d="M9.83749 0.449981L9.27499 1.87498C9.22499 1.98748 9.06249 1.97498 9.03749 1.84998L8.83749 0.337481C8.82499 0.262481 8.89999 0.187481 8.97499 0.199981L9.73749 0.287481C9.81249 0.299981 9.86249 0.374981 9.83749 0.449981ZM11.325 1.96248L9.87499 2.43748C9.74999 2.47498 9.66249 2.33748 9.74999 2.23748L10.7875 1.11248C10.8375 1.04998 10.9375 1.06248 10.975 1.12498L11.3875 1.77498C11.4375 1.83748 11.4 1.93748 11.325 1.96248ZM7.82499 0.674981L8.51249 2.03748C8.57499 2.14998 8.43749 2.26248 8.33749 2.19998L7.07499 1.34998C6.99999 1.28748 6.99999 1.19998 7.06249 1.14998L7.63749 0.637481C7.69999 0.574981 7.78749 0.599981 7.82499 0.674981Z" fill="#FF6F00"/>
</svg>
