<svg xmlns="http://www.w3.org/2000/svg" width="40" height="40" fill="none"><path fill="#fff" d="M18.002 6.308a2.27 2.27 0 0 0-.791-.673 2.24 2.24 0 0 0-1.006-.247H8.347a2.311 2.311 0 0 0-1.758.88 2.954 2.954 0 0 0-.786 2.03v23.885a2.85 2.85 0 0 0 .822 2.068 2.424 2.424 0 0 0 1.721.843h7.858a2.269 2.269 0 0 0 1.797-.882c.488-.56.755-1.282.748-2.029v-10.98a.416.416 0 0 0-.268-.438.402.402 0 0 0-.181-.02h-5.013a.401.401 0 0 0-.335.118.41.41 0 0 0-.114.34v7.764c0 .562-.311.842-.659.842a.734.734 0 0 1-.56-.25.753.753 0 0 1-.183-.592v-17.45a.76.76 0 0 1 .183-.592.744.744 0 0 1 .56-.252c.348 0 .659.283.659.844v7.208c0 .357.15.535.449.535h5.014c.3 0 .45-.178.45-.535V8.529a3.411 3.411 0 0 0-.749-2.22ZM21.036 35.094c-.398 0-.594-.175-.594-.526V5.99a.535.535 0 0 1 .353-.58.518.518 0 0 1 .24-.022h10.341a2.757 2.757 0 0 1 2.004.825 2.823 2.823 0 0 1 .816 2.028v9.402a6.065 6.065 0 0 1-.334 2.328c-.152.4-.394.76-.705 1.05-.198.2-.198.351 0 .451.288.167.53.407.698.697.17.29.261.619.267.955.05.752.075 1.278.074 1.577v7.531a2.852 2.852 0 0 1-.816 2.028 2.786 2.786 0 0 1-2.004.827l-10.34.007Zm5.325-23.772v6.547a.769.769 0 0 0 .207.565.75.75 0 0 0 .55.234.783.783 0 0 0 .541-.243.802.802 0 0 0 .221-.556v-6.547a.705.705 0 0 0-.232-.512.688.688 0 0 0-.53-.172c-.397 0-.757.184-.757.684Zm0 13.307v4.455a.808.808 0 0 0 .19.604.79.79 0 0 0 .566.273.8.8 0 0 0 .544-.286.819.819 0 0 0 .187-.59v-4.456a.758.758 0 0 0-.233-.504.74.74 0 0 0-1.254.504Z"/></svg>
