<svg width="16" height="16" viewBox="0 0 16 16" fill="none" xmlns="http://www.w3.org/2000/svg">
<g clip-path="url(#clip0_211_26)">
<path d="M11.4519 10.0275L11.4405 10.2374C11.4405 12.7121 9.43356 14.7184 6.95937 14.7184C4.48422 14.7184 2.47828 12.7121 2.47828 10.2374L2.466 10.0275C1.9474 9.99573 1.53622 9.56479 1.53622 9.03801C1.53622 8.55082 1.88794 8.14576 2.351 8.06242L2.24656 6.2776C2.24656 3.64023 4.181 2.01263 6.81887 2.01263C9.45609 2.01263 11.6567 3.64023 11.6567 6.2776L11.5593 8.06104C12.0262 8.1412 12.3819 8.5481 12.3819 9.03804C12.3819 9.56485 11.9706 9.99582 11.4519 10.0275Z" fill="#FFC9AB"/>
<path d="M4.7101 8.9677H4.70916C4.70916 8.96864 4.7101 8.96899 4.7101 8.96945C4.7101 9.21777 4.50863 9.41927 4.26028 9.41927C4.01194 9.41927 3.81047 9.2178 3.81047 8.96945V8.9677H3.80853L3.81394 8.33539C3.834 8.10505 4.02466 7.9238 4.26025 7.9238C4.49519 7.9238 4.68585 8.10505 4.70563 8.33539L4.7101 8.9677ZM10.0912 8.33536C10.0714 8.10502 9.8805 7.92377 9.64491 7.92377C9.41025 7.92377 9.21931 8.10502 9.19953 8.33536L9.1941 8.96767H9.19603V8.96942C9.19603 9.21774 9.3975 9.41924 9.64491 9.41924C9.89325 9.41924 10.0947 9.21777 10.0947 8.96942V8.96767L10.0912 8.33536Z" fill="#2B3B47"/>
<path d="M4.16391 8.35998V8.51801C4.16391 8.54771 4.15211 8.5762 4.1311 8.5972C4.1101 8.61821 4.08161 8.63001 4.05191 8.63001C4.0222 8.63001 3.99372 8.61821 3.97271 8.5972C3.95171 8.5762 3.93991 8.54771 3.93991 8.51801V8.51757H3.93966V8.35998H3.94078C3.94594 8.30276 3.99341 8.25751 4.05191 8.25751C4.07986 8.25758 4.10677 8.26816 4.1273 8.28714C4.14782 8.30611 4.16046 8.33211 4.16272 8.35998H4.16391ZM9.58138 8.35998C9.57912 8.33211 9.56648 8.30611 9.54595 8.28714C9.52543 8.26816 9.49852 8.25758 9.47057 8.25751C9.41207 8.25751 9.3646 8.30276 9.35944 8.35998H9.35832V8.51757H9.35857V8.51801C9.35857 8.54771 9.37037 8.5762 9.39137 8.5972C9.41237 8.61821 9.44086 8.63001 9.47057 8.63001C9.50027 8.63001 9.52876 8.61821 9.54976 8.5972C9.57077 8.5762 9.58257 8.54771 9.58257 8.51801V8.35998H9.58138Z" fill="white"/>
<path d="M4.75519 7.56496L4.74478 7.56236L4.71063 7.5548C4.66798 7.54587 4.62512 7.53799 4.58209 7.53114C4.47459 7.51361 4.32916 7.49696 4.189 7.49646C4.15465 7.49629 4.1203 7.49718 4.086 7.49911C4.05395 7.50095 4.02198 7.504 3.99016 7.50824C3.97548 7.51005 3.96087 7.51233 3.94634 7.51508C3.93207 7.51741 3.91863 7.52014 3.906 7.52327C3.89284 7.52592 3.88097 7.52927 3.86959 7.53258C3.85775 7.53555 3.84741 7.53917 3.8375 7.54264C3.82812 7.54557 3.81891 7.54904 3.80994 7.55305C3.80144 7.55649 3.79322 7.55964 3.78684 7.56327C3.78022 7.56677 3.77325 7.56964 3.76788 7.57277L3.75344 7.58146C3.74403 7.58636 3.73956 7.59139 3.73491 7.59411L3.72838 7.59855L3.698 7.61917C3.6574 7.64674 3.60799 7.65819 3.55941 7.65128C3.51083 7.64437 3.46656 7.6196 3.43526 7.58181C3.40395 7.54402 3.38786 7.49592 3.39011 7.4469C3.39236 7.39789 3.4128 7.35147 3.44744 7.31671L3.46194 7.30214C3.47156 7.29317 3.48531 7.27774 3.50416 7.26277L3.5355 7.23727C3.54703 7.22836 3.55969 7.22011 3.57328 7.21064C3.58691 7.20092 3.60144 7.19242 3.61691 7.18349C3.63276 7.17392 3.64905 7.1651 3.66572 7.15705C3.68312 7.14804 3.70089 7.13974 3.71897 7.13217C3.73741 7.12411 3.75647 7.11617 3.77588 7.10939C3.79558 7.10186 3.81555 7.09504 3.83575 7.08896C3.85629 7.08233 3.87702 7.07632 3.89791 7.07092C3.94047 7.05964 3.98345 7.05 4.02675 7.04202C4.07028 7.03405 4.11404 7.02742 4.15797 7.02214C4.33278 7.00111 4.50335 7.00017 4.63122 7.00489C4.69519 7.00721 4.74853 7.0108 4.7866 7.01405L4.83166 7.01827L4.84922 7.02027L4.8536 7.02077C4.88974 7.02491 4.92472 7.03612 4.95654 7.05378C4.98835 7.07144 5.01637 7.09519 5.03901 7.12368C5.06164 7.15216 5.07844 7.18483 5.08845 7.21981C5.09846 7.25479 5.10148 7.2914 5.09735 7.32755C5.09287 7.36671 5.08009 7.40447 5.05986 7.4383C5.03962 7.47213 5.0124 7.50125 4.98002 7.52372C4.94763 7.54619 4.91083 7.56149 4.87205 7.56861C4.83328 7.57572 4.79344 7.57447 4.75519 7.56496ZM9.06306 7.02096C9.02547 7.02544 8.9892 7.03758 8.95649 7.05662C8.92377 7.07566 8.8953 7.1012 8.87284 7.13167C8.85038 7.16215 8.83439 7.19689 8.82588 7.23378C8.81737 7.27066 8.8165 7.3089 8.82334 7.34614C8.83017 7.38337 8.84456 7.41881 8.86563 7.45026C8.88669 7.48172 8.91397 7.50852 8.94579 7.52903C8.97761 7.54953 9.0133 7.5633 9.05064 7.56948C9.08799 7.57566 9.12621 7.57412 9.16294 7.56496L9.17334 7.56236L9.2075 7.5548C9.25015 7.54587 9.293 7.53799 9.33603 7.53114C9.44353 7.51361 9.58897 7.49696 9.72913 7.49646C9.76413 7.4963 9.79866 7.49721 9.83213 7.49911C9.86538 7.50127 9.89788 7.50396 9.92797 7.50824C9.94264 7.51005 9.95725 7.51233 9.97178 7.51508C9.98605 7.51741 9.9995 7.52014 10.0121 7.52327C10.0253 7.52592 10.0372 7.52927 10.0485 7.53258C10.0604 7.53555 10.0707 7.53917 10.0806 7.54264C10.091 7.54583 10.1 7.54942 10.1082 7.55305C10.1167 7.55649 10.1249 7.55964 10.1313 7.56327C10.1379 7.56677 10.1449 7.56964 10.1503 7.57277L10.1647 7.58146C10.1741 7.58636 10.1786 7.59139 10.1832 7.59411L10.1898 7.59855L10.2202 7.61927C10.2608 7.64678 10.3102 7.65818 10.3588 7.65124C10.4073 7.6443 10.4516 7.61952 10.4828 7.58174C10.5141 7.54396 10.5302 7.49588 10.528 7.44688C10.5257 7.39788 10.5053 7.35147 10.4707 7.31671L10.4562 7.30214C10.4466 7.29317 10.4328 7.27774 10.414 7.26277L10.3826 7.23727C10.3711 7.22836 10.3584 7.22011 10.3448 7.21064C10.3307 7.20089 10.3162 7.19183 10.3012 7.18349C10.2854 7.17392 10.2691 7.1651 10.2524 7.15705C10.235 7.14804 10.2172 7.13974 10.1992 7.13217C10.1807 7.12411 10.1617 7.11617 10.1423 7.10939C10.1225 7.10186 10.1026 7.09504 10.0824 7.08896C10.0618 7.08233 10.0411 7.07632 10.0202 7.07092C9.97766 7.05964 9.93468 7.05 9.89138 7.04202C9.84785 7.03405 9.80409 7.02742 9.76016 7.02214C9.58535 7.00111 9.41478 7.00017 9.28691 7.00489C9.22294 7.00721 9.1696 7.0108 9.13153 7.01405L9.08647 7.01827L9.06891 7.02027L9.06306 7.02096Z" fill="#A9B5B4"/>
<path d="M6.95141 10.6362H6.95094C6.64669 10.6361 6.36988 10.485 6.2105 10.2321C6.18572 10.1908 6.17808 10.1415 6.18922 10.0947C6.20036 10.0479 6.22939 10.0074 6.27009 9.98172C6.31079 9.95607 6.35992 9.94739 6.40694 9.95753C6.45397 9.96768 6.49515 9.99584 6.52166 10.036C6.61334 10.1815 6.77391 10.2684 6.95113 10.2685H6.95141C7.12888 10.2685 7.28972 10.1815 7.38175 10.0358C7.39464 10.0154 7.41143 9.99773 7.43116 9.9838C7.45088 9.96988 7.47316 9.95997 7.49672 9.95465C7.52027 9.94933 7.54464 9.9487 7.56844 9.9528C7.59223 9.9569 7.61499 9.96565 7.63541 9.97855C7.65583 9.99144 7.67351 10.0082 7.68744 10.0279C7.70137 10.0477 7.71128 10.07 7.7166 10.0935C7.72191 10.1171 7.72254 10.1414 7.71844 10.1652C7.71434 10.189 7.70559 10.2118 7.69269 10.2322C7.53288 10.4852 7.25575 10.6362 6.95141 10.6362ZM9.48194 11.981C9.72953 11.793 9.77766 11.4398 9.58956 11.1923C9.40159 10.9448 9.04828 10.8963 8.80078 11.0846C7.67631 11.9389 6.22338 11.939 5.09922 11.0846C4.85181 10.8965 4.49863 10.9448 4.31041 11.1922C4.12231 11.4398 4.17044 11.793 4.418 11.981C5.17522 12.5565 6.06241 12.8442 6.94988 12.8442C7.83713 12.8442 8.72475 12.5564 9.48194 11.981Z" fill="#E0A882"/>
<path d="M11.7194 6.07862C11.7194 4.2788 10.6589 1.85199 7.47888 1.85199C7.47888 1.85199 7.20938 2.01549 6.82591 2.27202C6.56313 2.01005 6.39807 1.85199 6.39807 1.85199C3.2181 1.85199 2.19875 3.96065 2.19875 5.93068C2.19875 7.90071 2.45116 11.0035 2.45116 11.8777C2.45116 14.8729 4.29957 15.9233 6.9866 15.9233C9.67363 15.9233 11.522 14.7183 11.522 11.8777C11.522 11.8182 11.5217 11.7596 11.5211 11.702C11.5221 11.693 11.5226 11.682 11.5226 11.6689C11.5227 10.6748 11.7194 7.8784 11.7194 6.07862ZM7.70597 12.2575C7.46844 12.3217 7.21978 12.3645 6.96075 12.3645C6.63588 12.3645 6.41519 12.3302 6.25341 12.275C6.19491 12.255 6.1926 12.1738 6.24819 12.1487L6.28363 12.1336C6.33077 12.1135 6.37762 12.0928 6.42416 12.0714C6.48783 12.0422 6.55084 12.0116 6.61316 11.9796C6.64921 11.961 6.68494 11.9419 6.72035 11.9222C6.73605 11.9134 6.75167 11.9045 6.76719 11.8955C6.79669 11.8788 6.82391 11.8607 6.84844 11.8467C6.86939 11.8348 6.88988 11.822 6.90988 11.8085L6.91016 11.8083L6.92144 11.8009C6.93165 11.7942 6.9435 11.7904 6.95572 11.7898C6.96794 11.7893 6.98007 11.7921 6.99082 11.798L6.99913 11.8024C7.03178 11.8218 7.0831 11.8445 7.14197 11.8764C7.2016 11.9057 7.27382 11.9405 7.35641 11.9771C7.4386 12.0133 7.53013 12.0534 7.62763 12.0929C7.65582 12.1047 7.68445 12.1165 7.71353 12.1283C7.774 12.1529 7.76897 12.2404 7.70597 12.2575ZM10.0178 11.4458C9.99632 11.4494 9.9746 11.4413 9.95947 11.4256L9.94407 11.4096C9.81263 11.2755 9.66372 11.1552 9.50875 11.0481C9.35319 10.9439 9.18794 10.8606 9.02028 10.812C8.85253 10.7628 8.68519 10.75 8.5266 10.7481L8.40963 10.749C8.37085 10.7497 8.33353 10.7527 8.29619 10.7546C8.22153 10.7573 8.14991 10.767 8.08038 10.7742C8.01103 10.783 7.9445 10.7941 7.88044 10.8053C7.81688 10.8186 7.75535 10.8296 7.69738 10.845C7.58113 10.8727 7.47653 10.9056 7.38488 10.9369C7.30515 10.9649 7.22647 10.9957 7.14897 11.0293C7.08297 11.0592 7.03616 11.0826 7.00194 11.1013C6.99777 11.1035 6.99388 11.1056 6.99025 11.1075C6.97951 11.1132 6.96743 11.1159 6.95528 11.1154C6.94313 11.1148 6.93136 11.111 6.92119 11.1043L6.9071 11.0952C6.89789 11.089 6.88853 11.0831 6.87903 11.0773C6.8687 11.071 6.85747 11.0644 6.84535 11.0575C6.83338 11.0505 6.82025 11.0426 6.806 11.0345C6.79175 11.0264 6.77641 11.0181 6.75994 11.0102C6.72732 10.9932 6.69107 10.9765 6.65138 10.9579C6.61197 10.941 6.56916 10.9219 6.52332 10.9045C6.42089 10.8646 6.31606 10.8311 6.20944 10.8044C6.09263 10.7743 5.96378 10.7501 5.82469 10.7348C5.75478 10.7276 5.68322 10.7217 5.60828 10.7201C5.57042 10.7182 5.53251 10.7173 5.4946 10.7173C5.45557 10.7172 5.41656 10.718 5.37757 10.7196C5.35762 10.7205 5.3377 10.7217 5.31778 10.7231C5.27725 10.726 5.23682 10.7301 5.19653 10.7355C5.09469 10.7491 4.991 10.7714 4.88713 10.806C4.84521 10.8201 4.80381 10.8358 4.76303 10.8529C4.72144 10.8704 4.68044 10.8892 4.6401 10.9095C4.55755 10.951 4.4775 10.9973 4.40035 11.0482C4.28938 11.1236 4.18163 11.206 4.08078 11.2952C4.04021 11.3308 4.00081 11.3678 3.96266 11.406L3.96228 11.4064L3.95666 11.4122C3.94777 11.4211 3.93659 11.4275 3.92433 11.4306C3.91208 11.4336 3.89922 11.4333 3.88716 11.4295C3.38788 11.2772 3.24725 10.4326 2.98863 9.91583C3.07572 9.40355 2.65447 5.39065 3.08175 4.6669C3.31566 4.27071 3.84166 4.92646 4.23807 5.26577C4.75741 5.71033 6.83235 5.59005 8.12725 5.32193C10.2027 5.30615 10.9848 5.78733 10.9848 9.9158C10.7146 10.4556 10.5733 11.353 10.0178 11.4458Z" fill="#DEE2E2"/>
<path d="M6.98794 5.90931C4.311 5.90931 2.91044 6.61969 2.47562 6.889C2.30909 6.99215 2.09306 6.98637 1.939 6.86543C1.83962 6.7874 1.77912 6.67956 1.78147 6.56106C1.865 2.29318 4.63528 -0.0103149 9.15437 -0.0103149C12.2982 -0.0103149 14.7845 1.52512 14.7845 3.19553C14.7845 3.4124 14.7845 2.48994 13.2367 2.48994C12.2033 2.48994 12.1329 4.63618 12.1282 6.58275C12.1279 6.67993 12.0854 6.76934 12.0141 6.84059C11.8583 6.99612 11.6113 7.0125 11.4263 6.89318C10.9949 6.6149 9.63959 5.90931 6.98794 5.90931Z" fill="#FF473E"/>
<path d="M11.8659 7.31512C11.7237 7.31512 11.5799 7.27556 11.4516 7.19278C11.103 6.96794 9.75131 6.23434 6.99156 6.23434C4.20688 6.23434 2.80256 6.97016 2.4385 7.19569C2.07903 7.41834 1.60716 7.30744 1.38447 6.94797C1.16178 6.5885 1.27272 6.11659 1.63219 5.89394C2.21019 5.53591 3.88953 4.70312 6.99156 4.70312C8.31966 4.70312 9.51956 4.85666 10.5579 5.15944C11.4121 5.40853 11.9668 5.70294 12.2816 5.90603C12.6369 6.13525 12.7392 6.60912 12.51 6.96444C12.3636 7.19141 12.1173 7.31512 11.8659 7.31512Z" fill="#F4F3EF"/>
<path d="M15.6527 3.39667C15.6527 3.97054 15.1874 4.43579 14.6135 4.43579C14.0396 4.43579 13.5744 3.97058 13.5744 3.39667C13.5744 2.82276 14.0396 2.35754 14.6135 2.35754C15.1874 2.35754 15.6527 2.82276 15.6527 3.39667Z" fill="#DEE2E2"/>
</g>
<defs>
<clipPath id="clip0_211_26">
<rect width="16" height="16" fill="white"/>
</clipPath>
</defs>
</svg>
