<svg width="18" height="18" viewBox="0 0 18 18" fill="none" xmlns="http://www.w3.org/2000/svg">
<path d="M11.044 16.415C11.044 17.4135 10.2345 17.771 9.236 17.771C8.2375 17.771 7.428 17.4135 7.428 16.415L7.88 12.347C7.88 11.349 8.2375 11.443 9.236 11.443C10.2345 11.443 10.592 11.349 10.592 12.347L11.044 16.415Z" fill="#662113"/>
<path d="M15.295 13.8375C12.148 11.1415 10.8735 7.28149 9.236 7.28149C7.5985 7.28149 6.324 11.142 3.177 13.8375C1.8545 14.9705 2.4845 15.626 4.2975 15.4945C5.9135 15.378 7.425 15.0115 9.236 15.0115C11.047 15.0115 12.559 15.378 14.174 15.4945C15.9875 15.626 16.617 14.97 15.295 13.8375Z" fill="#5C913B"/>
<path d="M14.273 12.769C11.8545 10.5515 10.4955 7.37549 9.236 7.37549C7.9775 7.37549 6.618 10.5515 4.1995 12.769C2.2775 14.531 6.718 14.9265 9.236 12.769C11.753 14.927 16.1945 14.531 14.273 12.769Z" fill="#3E721D"/>
<path d="M14.273 10.9725C11.8545 8.90102 10.4955 5.93402 9.236 5.93402C7.9775 5.93402 6.618 8.90102 4.1995 10.9725C2.2775 12.6185 6.718 12.988 9.236 10.9725C11.753 12.9885 16.1945 12.6185 14.273 10.9725Z" fill="#5C913B"/>
<path d="M13.168 9.5015C11.2805 7.884 10.2195 5.5675 9.236 5.5675C8.2535 5.5675 7.192 7.8835 5.304 9.5015C3.804 10.7865 7.27 11.075 9.236 9.5015C11.201 11.0745 14.6685 10.7865 13.168 9.5015Z" fill="#3E721D"/>
<path d="M13.168 8.15549C11.2805 6.53799 10.2195 4.22198 9.236 4.22198C8.2535 4.22198 7.192 6.53799 5.304 8.15549C3.804 9.44099 7.27 9.72899 9.236 8.15549C11.201 9.72899 14.6685 9.44099 13.168 8.15549Z" fill="#5C913B"/>
<path d="M12.409 6.96002C10.8855 5.65502 10.029 3.78552 9.2355 3.78552C8.4425 3.78552 7.586 5.65502 6.062 6.96002C4.851 7.99752 7.649 8.23002 9.2355 6.96002C10.8225 8.23002 13.6205 7.99752 12.409 6.96002Z" fill="#3E721D"/>
<path d="M12.409 5.94702C10.8855 4.64202 10.029 2.77252 9.2355 2.77252C8.4425 2.77252 7.586 4.64202 6.062 5.94702C4.851 6.98452 7.649 7.21702 9.2355 5.94702C10.8225 7.21702 13.6205 6.98452 12.409 5.94702Z" fill="#5C913B"/>
<path d="M11.6505 4.45548C10.4915 3.46248 9.84 2.03998 9.236 2.03998C8.632 2.03998 7.9805 3.46248 6.821 4.45548C5.8995 5.24498 8.0285 5.42198 9.236 4.45548C10.443 5.42198 12.5725 5.24498 11.6505 4.45548Z" fill="#3E721D"/>
<path d="M11.6505 3.916C10.4915 2.9225 9.84 1.5 9.236 1.5C8.632 1.5 7.9805 2.9225 6.821 3.916C5.8995 4.7055 8.0285 4.8825 9.236 3.916C10.443 4.882 12.5725 4.705 11.6505 3.916Z" fill="#5C913B"/>
<path d="M8.25 6.771C8.66421 6.771 9 6.43521 9 6.021C9 5.60678 8.66421 5.271 8.25 5.271C7.83579 5.271 7.5 5.60678 7.5 6.021C7.5 6.43521 7.83579 6.771 8.25 6.771Z" fill="#FFCC4D"/>
<path d="M10 13.5C10.5523 13.5 11 13.0523 11 12.5C11 11.9477 10.5523 11.5 10 11.5C9.44772 11.5 9 11.9477 9 12.5C9 13.0523 9.44772 13.5 10 13.5Z" fill="#FFCC4D"/>
<path d="M11.25 9C11.9404 9 12.5 8.44036 12.5 7.75C12.5 7.05964 11.9404 6.5 11.25 6.5C10.5596 6.5 10 7.05964 10 7.75C10 8.44036 10.5596 9 11.25 9Z" fill="#DD2E44"/>
<path d="M5 14C5.55228 14 6 13.5523 6 13C6 12.4477 5.55228 12 5 12C4.44772 12 4 12.4477 4 13C4 13.5523 4.44772 14 5 14Z" fill="#DD2E44"/>
<path d="M7 10.5C7.55228 10.5 8 10.0523 8 9.5C8 8.94772 7.55228 8.5 7 8.5C6.44772 8.5 6 8.94772 6 9.5C6 10.0523 6.44772 10.5 7 10.5Z" fill="#A6D388"/>
<path d="M13 12.5C13.5523 12.5 14 12.0523 14 11.5C14 10.9477 13.5523 10.5 13 10.5C12.4477 10.5 12 10.9477 12 11.5C12 12.0523 12.4477 12.5 13 12.5Z" fill="#A6D388"/>
<path d="M9.6895 0.839496C9.761 0.976996 9.9455 1.114 10.098 1.144L10.7875 1.2785C10.94 1.3085 10.976 1.4235 10.867 1.5345L10.3755 2.0365C10.267 2.1475 10.193 2.365 10.2125 2.519L10.2975 3.216C10.3165 3.3705 10.218 3.44 10.0785 3.371L9.45 3.0585C9.3105 2.9895 9.081 2.9865 8.94 3.052L8.303 3.349C8.162 3.414 8.065 3.342 8.088 3.188L8.1905 2.493C8.213 2.3395 8.145 2.1205 8.0395 2.0065L7.56 1.493C7.454 1.3795 7.4925 1.2645 7.646 1.239L8.3385 1.122C8.492 1.0965 8.679 0.963996 8.7545 0.827996L9.095 0.213496C9.1705 0.0774962 9.292 0.0789962 9.3635 0.216496L9.6895 0.839496Z" fill="#FFAC33"/>
</svg>
